<mxfile host="app.diagrams.net" modified="2023-11-22T07:31:52.613Z" agent="Mozilla/5.0 (Windows NT 10.0; Win64; x64) AppleWebKit/537.36 (KHTML, like Gecko) Chrome/119.0.0.0 Safari/537.36 Edg/119.0.0.0" etag="YCsmAsnLsz0lySxk9lbv" version="22.1.3" type="device">
  <diagram name="Page-1" id="YXqaJm2Md2Zm6nVxV8ni">
    <mxGraphModel dx="872" dy="465" grid="1" gridSize="10" guides="1" tooltips="1" connect="1" arrows="1" fold="1" page="1" pageScale="1" pageWidth="850" pageHeight="1100" math="0" shadow="0">
      <root>
        <mxCell id="0" />
        <mxCell id="1" parent="0" />
        <mxCell id="4hQryS70XSNefBxvK8gH-1" value="Quản trị viên/ nhân viên" style="shape=umlActor;verticalLabelPosition=bottom;verticalAlign=top;html=1;" parent="1" vertex="1">
          <mxGeometry x="180" y="190" width="30" height="60" as="geometry" />
        </mxCell>
        <mxCell id="4hQryS70XSNefBxvK8gH-2" value="QL sản phẩm" style="ellipse;whiteSpace=wrap;html=1;" parent="1" vertex="1">
          <mxGeometry x="285" y="185" width="140" height="70" as="geometry" />
        </mxCell>
        <mxCell id="4hQryS70XSNefBxvK8gH-4" value="Thêm sản phẩm" style="ellipse;whiteSpace=wrap;html=1;" parent="1" vertex="1">
          <mxGeometry x="490" y="100" width="140" height="40" as="geometry" />
        </mxCell>
        <mxCell id="4hQryS70XSNefBxvK8gH-5" value="Xóa sản phẩm" style="ellipse;whiteSpace=wrap;html=1;" parent="1" vertex="1">
          <mxGeometry x="490" y="300" width="140" height="40" as="geometry" />
        </mxCell>
        <mxCell id="4hQryS70XSNefBxvK8gH-6" value="Cập nhật sản phẩm" style="ellipse;whiteSpace=wrap;html=1;" parent="1" vertex="1">
          <mxGeometry x="490" y="200" width="140" height="40" as="geometry" />
        </mxCell>
        <mxCell id="4hQryS70XSNefBxvK8gH-7" value="&amp;lt;&amp;lt;extend&amp;gt;&amp;gt;" style="html=1;verticalAlign=bottom;labelBackgroundColor=none;endArrow=open;endFill=0;dashed=1;rounded=0;entryX=1;entryY=0;entryDx=0;entryDy=0;exitX=0;exitY=0.5;exitDx=0;exitDy=0;" parent="1" source="4hQryS70XSNefBxvK8gH-4" target="4hQryS70XSNefBxvK8gH-2" edge="1">
          <mxGeometry width="160" relative="1" as="geometry">
            <mxPoint x="530" y="180" as="sourcePoint" />
            <mxPoint x="500" y="260" as="targetPoint" />
          </mxGeometry>
        </mxCell>
        <mxCell id="4hQryS70XSNefBxvK8gH-8" value="&amp;lt;&amp;lt;extend&amp;gt;&amp;gt;" style="html=1;verticalAlign=bottom;labelBackgroundColor=none;endArrow=open;endFill=0;dashed=1;rounded=0;entryX=1;entryY=0.5;entryDx=0;entryDy=0;exitX=0;exitY=0.5;exitDx=0;exitDy=0;" parent="1" source="4hQryS70XSNefBxvK8gH-6" target="4hQryS70XSNefBxvK8gH-2" edge="1">
          <mxGeometry width="160" relative="1" as="geometry">
            <mxPoint x="500" y="170" as="sourcePoint" />
            <mxPoint x="490" y="130" as="targetPoint" />
          </mxGeometry>
        </mxCell>
        <mxCell id="4hQryS70XSNefBxvK8gH-9" value="&amp;lt;&amp;lt;extend&amp;gt;&amp;gt;" style="html=1;verticalAlign=bottom;labelBackgroundColor=none;endArrow=open;endFill=0;dashed=1;rounded=0;entryX=1;entryY=1;entryDx=0;entryDy=0;exitX=0;exitY=0.5;exitDx=0;exitDy=0;" parent="1" source="4hQryS70XSNefBxvK8gH-5" target="4hQryS70XSNefBxvK8gH-2" edge="1">
          <mxGeometry width="160" relative="1" as="geometry">
            <mxPoint x="470" y="400" as="sourcePoint" />
            <mxPoint x="500" y="140" as="targetPoint" />
          </mxGeometry>
        </mxCell>
        <mxCell id="4hQryS70XSNefBxvK8gH-11" value="" style="endArrow=none;html=1;rounded=0;exitX=0.5;exitY=0.5;exitDx=0;exitDy=0;exitPerimeter=0;entryX=0;entryY=0.5;entryDx=0;entryDy=0;" parent="1" source="4hQryS70XSNefBxvK8gH-1" target="4hQryS70XSNefBxvK8gH-2" edge="1">
          <mxGeometry width="50" height="50" relative="1" as="geometry">
            <mxPoint x="400" y="270" as="sourcePoint" />
            <mxPoint x="280" y="220" as="targetPoint" />
          </mxGeometry>
        </mxCell>
        <mxCell id="4hQryS70XSNefBxvK8gH-12" value="Tìm kiếm sản phẩm" style="ellipse;whiteSpace=wrap;html=1;" parent="1" vertex="1">
          <mxGeometry x="285" y="320" width="140" height="40" as="geometry" />
        </mxCell>
        <mxCell id="4hQryS70XSNefBxvK8gH-13" value="&amp;lt;&amp;lt;extend&amp;gt;&amp;gt;" style="html=1;verticalAlign=bottom;labelBackgroundColor=none;endArrow=open;endFill=0;dashed=1;rounded=0;entryX=0.5;entryY=1;entryDx=0;entryDy=0;exitX=0.5;exitY=0;exitDx=0;exitDy=0;" parent="1" source="4hQryS70XSNefBxvK8gH-12" target="4hQryS70XSNefBxvK8gH-2" edge="1">
          <mxGeometry width="160" relative="1" as="geometry">
            <mxPoint x="500" y="330" as="sourcePoint" />
            <mxPoint x="414" y="255" as="targetPoint" />
          </mxGeometry>
        </mxCell>
        <mxCell id="kfPP8Yghr7yS9V7fds1o-3" value="Hiển thị sản phẩm" style="ellipse;whiteSpace=wrap;html=1;" vertex="1" parent="1">
          <mxGeometry x="285" y="80" width="140" height="40" as="geometry" />
        </mxCell>
        <mxCell id="kfPP8Yghr7yS9V7fds1o-4" value="&amp;lt;&amp;lt;extend&amp;gt;&amp;gt;" style="html=1;verticalAlign=bottom;labelBackgroundColor=none;endArrow=open;endFill=0;dashed=1;rounded=0;entryX=0.5;entryY=0;entryDx=0;entryDy=0;exitX=0.5;exitY=1;exitDx=0;exitDy=0;" edge="1" parent="1" source="kfPP8Yghr7yS9V7fds1o-3" target="4hQryS70XSNefBxvK8gH-2">
          <mxGeometry width="160" relative="1" as="geometry">
            <mxPoint x="415.5" y="100" as="sourcePoint" />
            <mxPoint x="329.5" y="175" as="targetPoint" />
          </mxGeometry>
        </mxCell>
      </root>
    </mxGraphModel>
  </diagram>
</mxfile>
